<?xml version="1.0" encoding="UTF-8" standalone="no"?><!DOCTYPE svg PUBLIC "-//W3C//DTD SVG 1.1//EN" "http://www.w3.org/Graphics/SVG/1.1/DTD/svg11.dtd"><svg width="100%" height="100%" viewBox="0 0 14 22" version="1.1" xmlns="http://www.w3.org/2000/svg" xmlns:xlink="http://www.w3.org/1999/xlink" xml:space="preserve" style="fill-rule:evenodd;clip-rule:evenodd;stroke-linejoin:round;stroke-miterlimit:1.41421;"><g><path d="M7,15.823l-4.537,4.343l0,-3.365l4.537,-4.343l0,-1.903l4.537,4.343l0,3.366l-4.537,-4.343l0,1.902l0,0Zm0,-5.277l-4.537,4.343l0,-3.366l4.537,-4.343l0,-1.902l4.537,4.343l0,3.365l-4.537,-4.343l0,1.903l0,0Zm0,-5.278l-4.537,4.343l0,-3.366l4.537,-4.343l0,-1.902l4.537,4.343l0,3.366l-4.537,-4.343l0,1.902l0,0Z" style="fill:#ffeb9b;"/></g></svg>