<?xml version="1.0" encoding="UTF-8" standalone="no"?><!DOCTYPE svg PUBLIC "-//W3C//DTD SVG 1.1//EN" "http://www.w3.org/Graphics/SVG/1.1/DTD/svg11.dtd"><svg width="100%" height="100%" viewBox="0 0 44 18" version="1.1" xmlns="http://www.w3.org/2000/svg" xmlns:xlink="http://www.w3.org/1999/xlink" xml:space="preserve" style="fill-rule:evenodd;clip-rule:evenodd;stroke-linejoin:round;stroke-miterlimit:1.41421;"><path d="M16.354,18l5.246,-4.229l5.246,4.229l-10.492,0Zm5.246,-11.009l5.262,-4.229l7.701,0l-7.762,6.238l7.762,6.238l-7.701,0l-5.262,-4.229l-5.262,4.229l-7.701,0l7.762,-6.238l-7.762,-6.238l7.701,0l5.262,4.229Zm14.34,-2.95l6.123,0l-6.171,4.959l6.171,4.959l-6.123,0l-6.17,-4.959l6.17,-4.959Zm-22.51,4.959l-6.17,4.959l-6.123,0l6.171,-4.959l-6.171,-4.959l6.123,0l6.17,4.959Zm8.17,-4.771l-5.246,-4.229l10.492,0l-5.246,4.229Z" style="fill:#59458d;"/></svg>