<?xml version="1.0" encoding="UTF-8" standalone="no"?><!DOCTYPE svg PUBLIC "-//W3C//DTD SVG 1.1//EN" "http://www.w3.org/Graphics/SVG/1.1/DTD/svg11.dtd"><svg width="100%" height="100%" viewBox="0 0 44 14" version="1.1" xmlns="http://www.w3.org/2000/svg" xmlns:xlink="http://www.w3.org/1999/xlink" xml:space="preserve" style="fill-rule:evenodd;clip-rule:evenodd;stroke-linejoin:round;stroke-miterlimit:1.41421;"><g><path d="M5.777,6.9l-4.343,-4.537l3.365,0l4.343,4.537l1.903,0l-4.343,4.537l-3.366,0l4.343,-4.537l-1.902,0Zm5.277,0l-4.343,-4.537l3.366,0l4.343,4.537l1.902,0l-4.343,4.537l-3.365,0l4.343,-4.537l-1.903,0Zm5.278,0l-4.343,-4.537l3.366,0l4.343,4.537l1.902,0l-4.343,4.537l-3.366,0l4.343,-4.537l-1.902,0Z" style="fill:#de3246;"/><path d="M37.423,6.9l4.343,4.537l-3.365,0l-4.343,-4.537l-1.903,0l4.343,-4.537l3.366,0l-4.343,4.537l1.902,0Zm-5.277,0l4.343,4.537l-3.366,0l-4.343,-4.537l-1.902,0l4.343,-4.537l3.365,0l-4.343,4.537l1.903,0Zm-5.278,0l4.343,4.537l-3.366,0l-4.343,-4.537l-1.902,0l4.343,-4.537l3.366,0l-4.343,4.537l1.902,0Z" style="fill:#de3246;"/></g></svg>