<?xml version="1.0" encoding="UTF-8" standalone="no"?><!DOCTYPE svg PUBLIC "-//W3C//DTD SVG 1.1//EN" "http://www.w3.org/Graphics/SVG/1.1/DTD/svg11.dtd"><svg width="100%" height="100%" viewBox="0 0 173 173" version="1.1" xmlns="http://www.w3.org/2000/svg" xmlns:xlink="http://www.w3.org/1999/xlink" xml:space="preserve" style="fill-rule:evenodd;clip-rule:evenodd;stroke-linejoin:round;stroke-miterlimit:1.41421;"><clipPath id="_clip1"><rect x="0" y="0" width="172.8" height="172.8"/></clipPath><g clip-path="url(#_clip1)"><path d="M86.4,57.455l-86.4,41.291l0,-28.852l86.4,-41.291l0,-9.617l-86.4,41.291l0,-9.617l86.4,-41.291l0,-9.348l-86.4,41.291l0,-28.852l86.4,-41.29l0,-9.618l-86.4,41.291l0,-9.617l86.4,-41.291l0,-9.617l86.4,41.291l0,28.851l-86.4,-41.29l0,9.617l86.4,41.291l0,9.617l-86.4,-41.291l0,9.348l86.4,41.291l0,28.851l-86.4,-41.291l0,9.617l86.4,41.291l0,9.617l-86.4,-41.29l0,9.581l86.4,41.291l0,28.851l-86.4,-41.291l0,9.617l86.4,41.291l0,9.617l-86.4,-41.291l0,9.348l86.4,41.291l0,28.852l-86.4,-41.291l0,9.617l86.4,41.291l0,9.617l-86.4,-41.291l0,9.617l-86.4,41.291l0,-28.851l86.4,-41.291l0,-9.617l-86.4,41.291l0,-9.618l86.4,-41.29l0,-9.349l-86.4,41.291l0,-28.851l86.4,-41.291l0,-9.617l-86.4,41.291l0,-9.617l86.4,-41.291l0,-9.581Z" style="fill:#2b2b2b;"/></g></svg>