<?xml version="1.0" encoding="UTF-8" standalone="no"?><!DOCTYPE svg PUBLIC "-//W3C//DTD SVG 1.1//EN" "http://www.w3.org/Graphics/SVG/1.1/DTD/svg11.dtd"><svg width="100%" height="100%" viewBox="0 0 192 58" version="1.1" xmlns="http://www.w3.org/2000/svg" xmlns:xlink="http://www.w3.org/1999/xlink" xml:space="preserve" style="fill-rule:evenodd;clip-rule:evenodd;stroke-linejoin:round;stroke-miterlimit:1.41421;"><path d="M118.595,45.64c0,-2.263 0.634,-4.432 1.9,-6.507c1.267,-2.075 2.924,-4.029 4.972,-5.861c2.048,-1.833 4.365,-3.531 6.952,-5.093c2.587,-1.563 5.188,-2.965 7.802,-4.204c2.614,-1.24 5.133,-2.291 7.558,-3.153c2.426,-0.862 4.501,-1.536 6.225,-2.021c0.539,-0.162 1.334,-0.391 2.385,-0.687c1.051,-0.297 2.129,-0.58 3.234,-0.849c1.105,-0.27 2.115,-0.499 3.031,-0.687c0.917,-0.189 1.509,-0.283 1.779,-0.283c0.647,-0.054 1.765,-0.189 3.355,-0.404c1.59,-0.216 3.274,-0.432 5.052,-0.647c1.779,-0.216 3.463,-0.431 5.053,-0.647c1.59,-0.216 2.708,-0.377 3.355,-0.485l0,-0.728c0,-1.778 -0.593,-3.26 -1.779,-4.446c-1.185,-1.186 -2.613,-2.142 -4.284,-2.87c-1.671,-0.727 -3.422,-1.239 -5.255,-1.536c-1.832,-0.296 -3.422,-0.444 -4.77,-0.444c-2.533,0 -4.971,0.269 -7.316,0.808c-2.344,0.539 -4.702,1.347 -7.073,2.425c-0.539,0.27 -1.227,0.62 -2.062,1.051c-0.835,0.431 -1.671,0.863 -2.506,1.294c-0.835,0.431 -1.576,0.808 -2.223,1.131c-0.647,0.324 -0.997,0.486 -1.051,0.486l-48.02,33.306c-2.695,1.887 -5.619,3.436 -8.772,4.649c-3.153,1.213 -6.413,2.156 -9.782,2.829c-3.368,0.674 -6.75,1.146 -10.145,1.415c-3.396,0.27 -6.71,0.404 -9.944,0.404l-2.91,0c-0.377,0 -1.038,-0.04 -1.981,-0.121c-0.943,-0.081 -1.954,-0.162 -3.031,-0.242c-1.078,-0.081 -2.089,-0.162 -3.032,-0.243c-0.943,-0.081 -1.603,-0.121 -1.981,-0.121c-0.161,0 -0.619,-0.054 -1.374,-0.162c-0.754,-0.108 -1.549,-0.229 -2.385,-0.364c-0.835,-0.134 -1.63,-0.256 -2.385,-0.364c-0.754,-0.107 -1.212,-0.161 -1.374,-0.161l-1.051,0l-0.727,0c-2.534,0.377 -4.999,0.835 -7.398,1.374c-2.398,0.539 -4.944,0.809 -7.639,0.809c-2.587,0 -5.039,-0.283 -7.357,-0.849c-2.317,-0.566 -4.338,-1.482 -6.063,-2.749c-1.725,-1.266 -3.085,-2.897 -4.082,-4.891c-0.997,-1.994 -1.496,-4.419 -1.496,-7.276c0,-2.209 0.323,-4.23 0.97,-6.063c0.647,-1.832 1.509,-3.638 2.587,-5.416c1.779,-3.126 3.934,-5.888 6.467,-8.287c2.533,-2.398 5.323,-4.432 8.368,-6.103c3.045,-1.671 6.251,-3.005 9.62,-4.002c3.368,-0.997 6.804,-1.684 10.307,-2.061l13.986,0c0.054,0 0.323,0.027 0.808,0.081c0.485,0.053 1.024,0.107 1.617,0.161c0.593,0.054 1.199,0.135 1.819,0.243c0.62,0.108 1.118,0.188 1.496,0.242c0.377,0 0.795,0.081 1.253,0.243c0.458,0.161 0.875,0.323 1.253,0.485c-4.689,-0.27 -9.54,-0.202 -14.552,0.202c-5.012,0.404 -9.863,1.347 -14.551,2.829c-4.689,1.483 -9.028,3.598 -13.016,6.347c-3.988,2.748 -7.276,6.305 -9.863,10.671c-1.078,1.994 -2.115,4.109 -3.112,6.346c-0.997,2.236 -1.496,4.54 -1.496,6.912c0,1.617 0.324,3.004 0.97,4.163c0.647,1.159 1.509,2.129 2.587,2.91c1.078,0.782 2.304,1.348 3.679,1.698c1.374,0.35 2.789,0.526 4.244,0.526c2.317,0 4.675,-0.27 7.074,-0.809c2.398,-0.539 4.756,-1.239 7.073,-2.102c2.318,-0.862 4.581,-1.846 6.791,-2.95c2.21,-1.105 4.285,-2.251 6.225,-3.436c0.539,-0.377 1.522,-1.024 2.951,-1.94c1.428,-0.917 2.95,-1.887 4.567,-2.911c1.617,-1.024 3.139,-1.994 4.568,-2.91c1.428,-0.916 2.411,-1.563 2.95,-1.94c0.378,-0.27 1.28,-0.943 2.709,-2.021c1.428,-1.078 2.977,-2.25 4.648,-3.517c1.671,-1.266 3.22,-2.439 4.648,-3.517c1.429,-1.077 2.331,-1.751 2.709,-2.021c4.096,-2.964 8.407,-5.672 12.934,-8.124c4.528,-2.452 9.189,-4.568 13.986,-6.346c4.797,-1.779 9.715,-3.153 14.754,-4.123c5.039,-0.97 10.145,-1.455 15.319,-1.455c3.396,0 6.683,0.148 9.863,0.444c3.18,0.297 6.198,1.334 9.054,3.113c2.911,-0.917 5.659,-1.617 8.246,-2.102c2.587,-0.485 5.336,-0.728 8.246,-0.728c2.156,0 4.352,0.216 6.589,0.647c2.236,0.431 4.284,1.159 6.144,2.183c1.859,1.024 3.422,2.344 4.689,3.961c1.266,1.617 2.034,3.638 2.304,6.063l7.518,0c-0.162,0.108 -0.525,0.202 -1.091,0.283c-0.566,0.081 -1.159,0.162 -1.779,0.242c-0.62,0.081 -1.213,0.135 -1.778,0.162c-0.566,0.027 -0.93,0.041 -1.092,0.041c-0.108,0 -0.242,0.027 -0.404,0.08c-0.162,0.054 -0.323,0.108 -0.485,0.162c-0.216,0.054 -0.404,0.108 -0.566,0.162c-0.108,0.108 -0.229,0.485 -0.364,1.132c-0.134,0.646 -0.296,1.374 -0.485,2.182c-0.188,0.809 -0.364,1.577 -0.525,2.304c-0.162,0.728 -0.297,1.226 -0.404,1.496c-1.725,4.689 -4.231,9.135 -7.519,13.339c-3.287,4.204 -7.073,7.895 -11.358,11.075c-4.285,3.18 -8.933,5.7 -13.945,7.559c-5.013,1.859 -10.079,2.789 -15.199,2.789c-1.778,0 -3.638,-0.189 -5.578,-0.566c-1.94,-0.377 -3.705,-1.01 -5.295,-1.9c-1.59,-0.889 -2.91,-2.075 -3.961,-3.557c-1.051,-1.482 -1.577,-3.301 -1.577,-5.457ZM121.425,45.317c0,1.132 0.35,2.048 1.051,2.749c0.7,0.7 1.563,1.239 2.587,1.617c1.024,0.377 2.088,0.633 3.193,0.768c1.105,0.134 2.061,0.202 2.87,0.202c3.395,0 6.898,-0.512 10.509,-1.536c3.611,-1.024 7.155,-2.358 10.631,-4.002c3.476,-1.644 6.777,-3.517 9.903,-5.619c3.126,-2.101 5.902,-4.23 8.327,-6.386c1.24,-1.078 2.52,-2.277 3.84,-3.598c1.32,-1.32 2.52,-2.748 3.597,-4.284c1.078,-1.536 1.968,-3.14 2.668,-4.81c0.701,-1.671 1.051,-3.396 1.051,-5.174l-0.404,0c-0.431,0.108 -0.997,0.202 -1.698,0.283c-0.7,0.081 -1.387,0.148 -2.061,0.202c-0.674,0.054 -1.267,0.108 -1.779,0.162c-0.512,0.053 -0.822,0.08 -0.929,0.08c-4.366,0.701 -8.812,1.577 -13.339,2.628c-4.527,1.051 -8.933,2.398 -13.218,4.042c-4.285,1.644 -8.381,3.665 -12.288,6.063c-3.907,2.398 -7.424,5.295 -10.55,8.691c-0.916,1.077 -1.805,2.304 -2.668,3.678c-0.862,1.374 -1.293,2.789 -1.293,4.244ZM40.825,49.925c1.24,0.216 2.452,0.337 3.638,0.364c1.186,0.027 2.479,0.04 3.881,0.04c3.233,0 6.507,-0.229 9.822,-0.687c3.314,-0.458 6.602,-1.132 9.863,-2.021c3.26,-0.889 6.44,-2.008 9.539,-3.355c3.099,-1.347 6.023,-2.91 8.771,-4.689l31.529,-20.776c0.269,-0.162 1.172,-0.66 2.708,-1.496c1.536,-0.835 3.274,-1.765 5.214,-2.789c1.941,-1.024 3.881,-2.048 5.821,-3.072c1.94,-1.024 3.449,-1.805 4.527,-2.344c0.27,-0.162 0.782,-0.431 1.536,-0.809c0.755,-0.377 1.563,-0.754 2.425,-1.131c0.863,-0.378 1.698,-0.715 2.506,-1.011c0.809,-0.296 1.402,-0.498 1.779,-0.606l0,-0.324c-0.269,-0.054 -0.539,-0.134 -0.808,-0.242c-0.27,-0.108 -0.526,-0.189 -0.768,-0.243c-0.243,-0.054 -0.445,-0.134 -0.607,-0.242c-1.078,-0.377 -2.169,-0.593 -3.274,-0.647c-1.105,-0.054 -2.277,-0.081 -3.516,-0.081c-3.665,0 -7.33,0.377 -10.995,1.132c-3.665,0.755 -7.276,1.738 -10.833,2.951c-3.557,1.212 -7.047,2.627 -10.469,4.244c-3.422,1.617 -6.75,3.261 -9.984,4.931c-0.539,0.27 -1.293,0.687 -2.263,1.253c-0.971,0.566 -1.968,1.146 -2.992,1.738c-1.024,0.593 -1.953,1.159 -2.789,1.698c-0.835,0.539 -1.387,0.889 -1.657,1.051l-24.657,17.866c-0.161,0.108 -0.525,0.324 -1.091,0.647c-0.566,0.323 -1.172,0.674 -1.819,1.051c-0.647,0.377 -1.28,0.754 -1.9,1.132c-0.62,0.377 -1.064,0.646 -1.334,0.808c-0.431,0.27 -1.212,0.687 -2.344,1.253c-1.132,0.566 -2.318,1.145 -3.557,1.738c-1.24,0.593 -2.426,1.146 -3.557,1.658c-1.132,0.512 -1.914,0.848 -2.345,1.01Z" style="fill:#000;fill-rule:nonzero;"/></svg>